Coordinates
version=1
nRows=10
nColumns=63
inDegrees=yes

Units are S.I. units (second, meters, Newtons, ...)
If the header above contains a line with 'inDegrees', this indicates whether rotational values are in degrees (yes) or radians (no).

endheader
time	pelvis_tilt	pelvis_list	pelvis_rotation	pelvis_tx	pelvis_ty	pelvis_tz	hip_flexion_r	hip_adduction_r	hip_rotation_r	knee_angle_r	knee_angle_r_beta	ankle_angle_r	subtalar_angle_r	mtp_angle_r	hip_flexion_l	hip_adduction_l	hip_rotation_l	knee_angle_l	knee_angle_l_beta	ankle_angle_l	subtalar_angle_l	mtp_angle_l	L5_S1_Flex_Ext	L5_S1_Lat_Bending	L5_S1_axial_rotation	L4_L5_Flex_Ext	L4_L5_Lat_Bending	L4_L5_axial_rotation	L3_L4_Flex_Ext	L3_L4_Lat_Bending	L3_L4_axial_rotation	L2_L3_Flex_Ext	L2_L3_Lat_Bending	L2_L3_axial_rotation	L1_L2_Flex_Ext	L1_L2_Lat_Bending	L1_L2_axial_rotation	L1_T12_Flex_Ext	L1_T12_Lat_Bending	L1_T12_axial_rotation	Abs_r3	Abs_r2	Abs_r1	Abs_t1	Abs_t2	neck_flexion	neck_bending	neck_rotation	arm_flex_r	arm_add_r	arm_rot_r	elbow_flex_r	pro_sup_r	wrist_flex_r	wrist_dev_r	arm_flex_l	arm_add_l	arm_rot_l	elbow_flex_l	pro_sup_l	wrist_flex_l	wrist_dev_l
2.627451	-0.025326	2.173574	93.347011	0.221142	0.841359	0.706683	0.192712	-0.048703	-4.626915	4.289619	0.074868	22.963847	6.053868	0.000000	1.659992	-0.283298	-4.300140	6.031590	0.105271	21.811684	3.341045	0.000000	0.170960	-0.142596	0.264046	0.317490	-0.189653	0.280549	0.280870	-0.346708	0.280549	0.195390	-0.346708	0.231040	0.158753	-0.290782	0.214537	0.097686	-0.220881	0.198034	1.221149	-1.613075	1.468543	0.000000	0.000000	13.283628	4.848503	-5.564776	-0.781408	-7.071247	15.929853	53.359697	83.897116	-0.696471	3.210043	3.603957	-14.631671	27.207742	53.477730	89.059724	-12.148821	-4.263426
2.647059	0.136402	2.050345	93.870037	0.220200	0.839826	0.708779	0.500622	0.079510	-5.335482	4.463886	0.077910	23.108138	6.182940	0.000000	2.198705	-0.457605	-4.343437	6.635058	0.115804	22.190405	3.916365	0.000000	0.150840	-0.123512	0.234728	0.280125	-0.164270	0.249398	0.247815	-0.300306	0.249398	0.172395	-0.300306	0.205387	0.140070	-0.251865	0.190716	0.086190	-0.191319	0.176046	1.077433	-1.397187	1.305484	0.000000	0.000000	14.163971	4.740313	-5.984145	0.471362	-7.004579	16.506884	48.293128	84.386943	-1.705762	2.779810	5.586421	-14.047854	29.396339	47.308633	91.479440	-15.215536	-4.907925
2.666667	0.299355	1.927232	94.329700	0.219386	0.838332	0.710586	0.785109	0.212314	-5.914507	4.607556	0.080417	23.231258	6.238742	0.000000	2.708078	-0.629848	-4.342507	7.211395	0.125863	22.588564	4.412210	0.000000	0.133760	-0.105226	0.189830	0.248406	-0.139950	0.201695	0.219755	-0.255846	0.201695	0.152875	-0.255846	0.166102	0.124210	-0.214576	0.154237	0.076431	-0.162995	0.142373	0.955437	-1.190334	1.055780	0.000000	0.000000	15.067994	4.718061	-6.289056	1.619901	-7.096936	17.604729	43.744170	84.735577	-2.373923	2.285706	7.391229	-13.418085	34.223894	41.239091	91.602606	-17.334782	-5.416769
2.686275	0.458764	1.821281	94.705049	0.218746	0.836952	0.712015	1.026684	0.347962	-6.302238	4.732157	0.082592	23.336281	6.172355	0.000000	3.146175	-0.793159	-4.251903	7.719791	0.134736	22.978489	4.744527	0.000000	0.119229	-0.088762	0.130310	0.221421	-0.118053	0.138455	0.195882	-0.215815	0.138455	0.136267	-0.215815	0.114021	0.110716	-0.181003	0.105877	0.068128	-0.137492	0.097733	0.851642	-1.004091	0.724746	0.000000	0.000000	15.895372	4.765476	-6.517947	2.649271	-7.294979	19.270889	39.748511	84.973525	-2.867920	1.750597	8.967543	-12.779736	40.981646	35.489751	89.674242	-18.570927	-5.755260
2.705882	0.603116	1.691694	95.041289	0.218252	0.835656	0.713088	1.252614	0.474032	-6.599749	4.809185	0.083936	23.417689	6.063968	0.000000	3.580581	-0.953838	-4.310056	8.195599	0.143040	23.458398	5.318121	0.000000	0.111012	-0.075878	0.047742	0.206161	-0.100918	0.050726	0.182382	-0.184490	0.050726	0.126876	-0.184490	0.041774	0.103086	-0.154731	0.038790	0.063432	-0.117535	0.035806	0.792949	-0.858350	0.265525	0.000000	0.000000	16.761387	4.899799	-6.629299	3.532440	-7.544013	21.262982	36.350741	85.201477	-3.242518	1.074903	10.273780	-12.147139	49.589540	30.099085	85.836136	-19.169061	-6.145268
2.725490	0.726033	1.564104	95.307370	0.217911	0.834498	0.713782	1.440133	0.586510	-6.741776	4.850429	0.084656	23.473296	5.863068	0.000000	3.945682	-1.081656	-4.173310	8.565344	0.149493	23.859830	5.567544	0.000000	0.106791	-0.067061	-0.045840	0.198322	-0.089191	-0.048705	0.175447	-0.163052	-0.048705	0.122052	-0.163052	-0.040110	0.099166	-0.136751	-0.037245	0.061021	-0.103878	-0.034380	0.762799	-0.758609	-0.254948	0.000000	0.000000	17.576655	5.108648	-6.680423	4.313126	-7.781381	23.710607	33.505032	85.304130	-3.693786	0.268063	11.363301	-11.544450	59.130830	25.278703	80.243734	-19.223166	-6.445987
2.745098	0.815578	1.446969	95.475213	0.217762	0.833477	0.714123	1.594528	0.672348	-6.743828	4.880644	0.085183	23.525774	5.622618	0.000000	4.232220	-1.167374	-3.886204	8.836904	0.154233	24.172337	5.492067	0.000000	0.104923	-0.064127	-0.136205	0.194853	-0.085289	-0.144718	0.172378	-0.155918	-0.144718	0.119917	-0.155918	-0.119179	0.097432	-0.130767	-0.110667	0.059953	-0.099332	-0.102154	0.749456	-0.725414	-0.757532	0.000000	0.000000	18.334715	5.391657	-6.743918	5.010018	-7.946349	26.488605	31.176178	85.312794	-4.293468	-0.617062	12.280369	-10.951204	69.259236	21.051590	72.985522	-18.830154	-6.631649
2.764706	0.876232	1.339938	95.597163	0.217743	0.832568	0.714154	1.686242	0.750550	-6.414613	4.835514	0.084396	23.493305	5.007011	0.000000	4.449727	-1.217488	-3.470351	9.018934	0.157410	24.409130	5.178642	0.000000	0.104770	-0.066513	-0.226538	0.194569	-0.088462	-0.240696	0.172127	-0.161720	-0.240696	0.119742	-0.161720	-0.198220	0.097290	-0.135633	-0.184062	0.059866	-0.103029	-0.169903	0.748363	-0.752408	-1.259934	0.000000	0.000000	19.063144	5.715608	-6.826416	5.658329	-7.993652	29.533927	29.281776	85.245189	-5.067676	-1.566028	13.075185	-10.336415	79.297850	17.478849	64.540379	-17.982468	-6.728312
2.784314	0.896288	1.238718	95.631335	0.217868	0.831730	0.713945	1.759880	0.792111	-5.997566	4.787075	0.083550	23.491741	4.407862	0.000000	4.602586	-1.216147	-2.884003	9.110259	0.159004	24.535609	4.496445	0.000000	0.106235	-0.074885	-0.306647	0.197290	-0.099597	-0.325813	0.174534	-0.182075	-0.325813	0.121416	-0.182075	-0.268316	0.098650	-0.152705	-0.249151	0.060703	-0.115997	-0.229985	0.758829	-0.847112	-1.705480	0.000000	0.000000	19.758819	6.074341	-6.939105	6.286516	-7.906526	32.748475	27.766328	85.223238	-5.997185	-2.531904	13.753654	-9.652986	89.275455	14.398242	55.363103	-16.737344	-6.880351
2.803922	0.870070	1.132927	95.553267	0.218132	0.830935	0.713554	1.845363	0.784015	-5.556620	4.760855	0.083093	23.553912	3.938099	0.000000	4.695793	-1.156062	-2.149554	9.090377	0.158657	24.541955	3.439096	0.000000	0.110289	-0.088988	-0.369155	0.204818	-0.118355	-0.392227	0.181194	-0.216366	-0.392227	0.126049	-0.216366	-0.323011	0.102414	-0.181465	-0.299939	0.063019	-0.137843	-0.276866	0.787783	-1.006654	-2.053131	0.000000	0.000000	20.418003	6.437664	-7.075245	6.903979	-7.682519	35.985367	26.607416	85.518055	-7.015389	-3.435673	14.308833	-8.867934	99.066546	11.735779	46.038569	-15.218572	-7.152036
